<svg xmlns="http://www.w3.org/2000/svg" class="h-8 w-44" viewBox="0 0 270.933 64.029"><path d="m209.19 572.13 11.79-14.69 34.31 45h38.95l-53.08-70.18 47.03-58.39H248.5l-39.31 48.27v-48.27h-31.17v128.57h31.17z" class="logo_inline_svg__cls-10" style="fill:#0086ff;stroke-width:0;--darkreader-inline-fill:var(--darkreader-text-0086ff, #33a6ff)" transform="matrix(.32855 0 0 .33161 85.75 -153.568)"/><path d="M-.497 365.357c-4.633-2.64-9.723-3.96-15.236-3.96h-25.216v59.767h25.216q8.36-.001 15.351-3.872c4.661-2.58 8.327-6.14 11.03-10.618 2.7-4.504 4.068-9.525 4.068-15.122s-1.364-10.673-4.095-15.294c-2.759-4.62-6.452-8.265-11.113-10.9zm-1.336 34.117c-1.45 2.44-3.385 4.388-5.826 5.797-2.445 1.436-5.144 2.124-8.074 2.124h-10.832v-32.252h10.832c2.93 0 5.629.715 8.074 2.18 2.446 1.464 4.408 3.412 5.826 5.88 1.451 2.469 2.16 5.193 2.16 8.15 0 2.956-.736 5.68-2.16 8.12m-59.698-1.003c-1.253 2.584-3.128 4.676-5.628 6.196-2.474 1.548-5.205 2.325-8.157 2.325s-5.458-.716-7.816-2.125c-2.386-1.404-4.265-3.3-5.683-5.708s-2.133-5.021-2.133-7.89c0-2.867.71-5.508 2.133-7.888 1.423-2.408 3.325-4.305 5.683-5.736 2.386-1.437 4.974-2.153 7.816-2.153s5.573.777 7.986 2.269c2.446 1.52 4.32 3.5 5.684 5.908l12.31-6.629c-2.5-4.732-6.111-8.549-10.745-11.389-4.633-2.812-9.722-4.244-15.235-4.244s-10.321 1.348-14.84 4.016c-4.55 2.669-8.129 6.313-10.772 10.873-2.644 4.593-3.98 9.586-3.98 14.978 0 5.393 1.336 10.418 3.98 14.978 2.643 4.593 6.254 8.205 10.772 10.874 4.519 2.668 9.497 4.016 14.84 4.016s10.63-1.436 15.323-4.332q7.034-4.345 10.833-11.534l-12.367-6.8zm-110.126-.66-5.26-23.011a4.13 4.13 0 0 0-2.188-2.757l-21.264-10.246a4 4 0 0 0-3.523 0l-21.237 10.241a4.08 4.08 0 0 0-2.188 2.757l-5.26 23.01a3.75 3.75 0 0 0 0 1.781c.028.172.088.344.143.516.116.288.226.572.396.832.088.117.143.228.226.316l7.563 9.47c.027-.116.027-.26.055-.372.143-.976-.17-1.836-.484-2.724-.539-1.492-1.28-2.929-1.506-4.533-.225-1.836-.17-3.672-.143-5.508.028-1.032-.258-1.953-.566-2.896-.396-1.265-.967-2.469-1.138-3.79-.087-.66-.115-1.32.088-1.98.143-.4.368-.743.797-.743.428 0 .709.316.824.716.226.804.396 1.636.567 2.468a19 19 0 0 0 1.11 3.445c.313.716.566.744 1.05.116a1.85 1.85 0 0 0 .34-1.092c.116-2.236.226-4.45.341-6.685a7.8 7.8 0 0 1 .456-2.125c.17-.516.54-.948 1.138-.86.599.089.626.66.599 1.149a59 59 0 0 0-.143 6.684c0 .488-.028.949.34 1.576.028-2.984.88-5.625 1.221-8.377a3 3 0 0 1 .286-1.032c.258-.46.709-.688 1.192-.604.54.116.54.604.512 1.032-.17 1.52-.429 3.04-.567 4.56-.17 1.609-.225 3.24-.368 4.993.456-.344.456-.744.539-1.092.396-1.437.824-2.897.967-4.389.055-.4.143-.776.313-1.12.198-.544.626-.888 1.165-.804.567.088.484.688.511 1.12.056 1.952-.368 3.844-.626 5.736a25.3 25.3 0 0 0-.088 6.857c.028.26.116.544.199.777.34.948.769 1.092 1.62.571.226-.144.457-.288.655-.488 1.308-1.264 2.814-1.092 4.347-.544.341.117.627.344.825.66.396.688.226 1.204-.567 1.149-2.247-.2-3.523 1.12-4.748 2.668-.77.976-1.907 1.348-2.985 1.72-.94.316-1.22.832-1.192 1.808.055 3.529.055 7.057.055 10.59v.116l.17.228c.056.088.143.144.198.228.226.26.484.46.77.66.368.228.736.4 1.165.516.34.088.681.144 1.022.144h.226l9.124-.116c.027-1.753.055-3.5.087-5.22.028-2.613.825-5.11 1.11-7.662a43.5 43.5 0 0 0-.027-10.33c-.115-1.092-.567-1.835-1.677-2.268-1.165-.432-1.764-1.636-2.588-2.524-2.473-2.64-4.293-5.825-6.964-8.321-.285-.26-.396-.604-.226-.948.226-.488.737-.805 1.28-.744 1.11.056 1.99.572 2.732 1.376.852.888 1.649 1.78 2.644 2.524 1.05.804 1.39.688 1.934-.488.995-2.152 1.05-4.36.456-6.629-.599-2.352-1.45-4.677-1.336-7.173.056-1.464.396-2.324 1.138-2.296 1.253.056 1.11 1.204 1.253 1.98.456 2.496.912 5.02 1.847 7.4.115.317.142.921.654.777.396-.116.225-.604.198-.92-.198-2.957-.512-5.909.027-8.865.088-.516.143-1.032.484-1.465.313-.372.681-.632 1.165-.488.456.144.654.516.654.976.028 1.12.088 2.236 0 3.357-.143 2.152.258 4.244.456 6.368.028.289 0 .744.396.744.313 0 .484-.4.539-.688.511-2.236 1.363-4.42 1.649-6.713.087-.571.143-1.176.428-1.72.258-.46.567-.66 1.082-.571.567.088.852.4.88.976a2.8 2.8 0 0 1-.027.832c-.512 2.812-.77 5.68-1.622 8.437-.027.144-.055.26-.087.4-.056.316-.17.716.143.86.368.2.626-.2.824-.46 1.138-1.376 2.215-2.785 2.957-4.42.115-.29.285-.545.511-.777.313-.344.71-.572 1.22-.372.567.26.369.744.314 1.176a4.4 4.4 0 0 1-.797 2.036c-2.386 3.273-3.183 7-3.155 10.962a7.9 7.9 0 0 1-.797 3.412c-.483 1.032-.51 2.124-.456 3.272.198 3.729.968 7.401 1.391 11.106.511 4.388.71 8.81.369 13.198h3.155c.142 0 .285 0 .428-.028.198-.028.396-.056.599-.116.142-.028.285-.089.428-.144.115-.028.198-.089.313-.144.143-.089.313-.144.456-.26.369-.229.71-.517.967-.86l.17-.433c.37-4.56-.087-9.098-.312-13.63-.116-2.408-2.33-5.253-5.315-5.309-.54 0-1.28.172-1.308-.744 0-.743.483-1.204 1.22-1.32a5.3 5.3 0 0 1 2.759.288c1.82.66 2.87-.288 2.358-2.236a38.4 38.4 0 0 1-1.05-6.457c-.055-.571-.143-1.148.028-1.72.17-.543.428-1.032 1.082-1.004.71.028.654.66.737 1.149.313 1.836.71 3.616 1.621 5.452.428-.715.456-1.376.511-1.952.088-1.376.54-2.696.682-4.072a1.64 1.64 0 0 1 .258-.716c.225-.4.539-.716 1.05-.604.566.116.737.571.71 1.092-.088 1.292-.227 2.613-.342 3.9-.055.777-.115 1.52.028 2.352a292 292 0 0 0 1.506-4.388c.258-.744.313-1.808 1.423-1.492.995.316.456 1.264.313 1.892-.34 1.752-.796 3.472-1.193 5.22-.087.4-.285.92.226 1.176.456.228.71-.26.967-.543 1.023-1.149 1.99-2.325 3.012-3.445.286-.316.6-.888 1.166-.516.483.344.368.92.142 1.404-.396.888-.94 1.72-1.56 2.468-.968 1.12-1.677 2.352-1.908 3.845a10.5 10.5 0 0 1-.796 2.812c-1.166 2.469-1.22 5.02-.825 7.661q.041.258.088.516l7.25-9.097c.285-.344.483-.744.625-1.149.056-.172.116-.344.143-.516.17-.604.17-1.204.056-1.78z" class="logo_inline_svg__cls-10" style="fill:#0086ff;stroke-width:0;--darkreader-inline-fill:var(--darkreader-text-0086ff, #33a6ff)" transform="translate(257.26 -254.23) scale(.71335)"/><g style="fill:#252525;fill-opacity:1;--darkreader-inline-fill:var(--darkreader-text-252525, #d1cdc7)"><path d="M-227.064 436.63h3.837v3.645c-.852.92-2.215 1.464-3.523 1.464-2.529 0-4.689-2.096-4.689-4.56s2.16-4.56 4.689-4.56c1.308 0 2.643.544 3.523 1.464l-1.363 1.232c-.512-.604-1.364-.976-2.16-.976-1.506 0-2.76 1.32-2.76 2.84s1.254 2.84 2.76 2.84c.598 0 1.192-.2 1.676-.571v-1.349h-2.017v-1.464h.027zm10.745 1.948 2.105 3.013h-2.132l-1.99-2.869h-1.137v2.869h-1.875v-8.81h3.924c1.907 0 3.298 1.232 3.298 2.985 0 1.348-.88 2.408-2.188 2.812zm-3.154-1.576h1.846c.94 0 1.562-.488 1.562-1.232 0-.743-.627-1.231-1.562-1.231h-1.846v2.468zm6.535.172c0-2.468 2.132-4.56 4.661-4.56s4.633 2.064 4.633 4.56c0 2.497-2.105 4.56-4.633 4.56s-4.661-2.096-4.661-4.56m7.364 0c0-1.52-1.252-2.84-2.698-2.84-1.447 0-2.732 1.32-2.732 2.84s1.253 2.84 2.732 2.84c1.478 0 2.698-1.32 2.698-2.84m2.87-4.421h2.045l1.62 5.909 1.935-5.909h2.045l1.935 5.909 1.593-5.909h2.045l-2.644 8.81h-1.906l-2.045-6.053-2.077 6.053h-1.907l-2.644-8.81zm14.697 0h1.874v8.81h-1.874zm4.067 0h1.874l4.205 5.709v-5.709h1.874v8.81h-1.874l-4.205-5.709v5.709h-1.875zm14.014 3.877h3.837v3.645c-.852.92-2.215 1.464-3.523 1.464-2.529 0-4.689-2.096-4.689-4.56s2.16-4.56 4.689-4.56c1.308 0 2.643.544 3.523 1.464l-1.363 1.232c-.512-.604-1.364-.976-2.16-.976-1.507 0-2.76 1.32-2.76 2.84s1.253 2.84 2.76 2.84c.598 0 1.192-.2 1.676-.571v-1.349h-2.017v-1.464h.027zm8.673.544c0-2.468 2.132-4.56 4.66-4.56a4.7 4.7 0 0 1 3.381 1.464l-1.363 1.232a2.59 2.59 0 0 0-2.017-.976c-1.479 0-2.731 1.32-2.731 2.84s1.252 2.84 2.73 2.84c.798 0 1.534-.4 2.018-.976l1.363 1.232c-.852.888-2.045 1.465-3.38 1.465-2.529 0-4.661-2.097-4.661-4.56m15.747 2.695v1.693h-6.227v-8.81h1.874v7.118h4.348zm.994-2.696c0-2.468 2.133-4.56 4.661-4.56 2.529 0 4.634 2.064 4.634 4.56 0 2.497-2.105 4.56-4.634 4.56-2.528 0-4.66-2.096-4.66-4.56m7.365 0c0-1.52-1.253-2.84-2.699-2.84s-2.731 1.32-2.731 2.84 1.253 2.84 2.731 2.84 2.699-1.32 2.699-2.84m3.435.605v-4.993h1.874v4.937c0 1.348.852 2.324 2.077 2.324s2.077-.976 2.077-2.324v-4.937h1.875v4.993c0 2.324-1.649 3.96-3.952 3.96-2.33 0-3.951-1.636-3.951-3.96m9.925-5.026h3.127c2.93 0 5.03 1.809 5.03 4.389s-2.078 4.42-5.03 4.42h-3.127zm3.38 7.118c1.677 0 2.842-1.12 2.842-2.697s-1.193-2.668-2.842-2.668h-1.506v5.365zm9.893-7.118h1.875l4.205 5.709v-5.709h1.874v8.81h-1.874l-4.205-5.709v5.709h-1.875zm15.89 7.317h-3.781l-.599 1.52h-2.105l3.556-8.809h2.105l3.555 8.81h-2.105zm-.594-1.492-1.308-3.212-1.308 3.212zm6.766-4.1h-2.732v-1.692h7.333v1.692h-2.732v7.117h-1.874v-7.117zm6.084-1.725h1.874v8.81h-1.874zm12.537 0-3.556 8.81h-2.105l-3.556-8.81h2.105l2.501 6.197 2.5-6.197h2.106zm3.297 1.725v1.753h4.408v1.692h-4.408v1.952h4.831v1.692h-6.738v-8.809h6.738v1.692h-4.831zm12.136 0h-2.731v-1.692h7.332v1.692h-2.731v7.117h-1.875v-7.117zm5.573 2.696c0-2.468 2.132-4.56 4.66-4.56 2.53 0 4.634 2.064 4.634 4.56 0 2.497-2.105 4.56-4.633 4.56s-4.661-2.096-4.661-4.56m7.36 0c0-1.52-1.253-2.84-2.7-2.84-1.446 0-2.73 1.32-2.73 2.84s1.252 2.84 2.73 2.84c1.48 0 2.7-1.32 2.7-2.84m7.479-.544h3.837v3.645c-.852.92-2.216 1.464-3.524 1.464-2.528 0-4.688-2.096-4.688-4.56s2.16-4.56 4.688-4.56c1.308 0 2.644.544 3.524 1.464l-1.364 1.232c-.51-.604-1.363-.976-2.16-.976-1.506 0-2.758 1.32-2.758 2.84s1.252 2.84 2.758 2.84c.6 0 1.193-.2 1.677-.571v-1.349h-2.017v-1.464h.027zm7.59-2.152v1.753h4.408v1.692h-4.408v1.952h4.832v1.692h-6.71v-8.809h6.737v1.692h-4.859zm8.668 0h-2.731v-1.692h7.332v1.692h-2.73v7.117h-1.875v-7.117zm13.817-1.725v8.81h-1.874v-3.645h-3.98v3.645h-1.874v-8.81h1.874v3.473h3.98v-3.473zm4.122 1.725v1.753H4.62v1.692H.212v1.952h4.832v1.692h-6.738v-8.809h6.738v1.692H.212Zm11.685 4.1 2.105 3.013h-2.133l-1.99-2.869H8.743v2.869H6.867v-8.81h3.924c1.907 0 3.298 1.232 3.298 2.985 0 1.348-.88 2.408-2.188 2.812zm-3.155-1.576h1.847c.94 0 1.561-.488 1.561-1.232 0-.743-.626-1.231-1.561-1.231H8.742v2.468z" class="logo_inline_svg__cls-2" style="fill:#252525;fill-opacity:1;stroke-width:0;--darkreader-inline-fill:var(--darkreader-text-252525, #d1cdc7)" transform="translate(257.26 -254.23) scale(.71335)"/></g><path d="M-109.34 177.156c-1.037 0-2.135 0-3.237.054-2.091.104-4.139.66-6.025 1.582l-84.096 40.91c-4.242 1.997-7.355 5.711-8.49 10.565l-21.22 93.947c-.114.654-.111 1.303-.154 1.955h247.26c0-.057.01-.113.008-.17a16 16 0 0 0-.406-2.99l-21.225-92.174v.006c-1.416-4.57-4.81-8.28-9.051-10.565l-86.29-41.691c-2.265-1.14-4.81-1.43-7.074-1.43" class="logo_inline_svg__cls-3" style="fill:#0086ff;fill-opacity:1;stroke-width:0;--darkreader-inline-fill:var(--darkreader-text-0086ff, #33a6ff)" transform="translate(79.972 -55.34) scale(.33013)"/><g transform="translate(155.389 -113.333) scale(.64246)"><rect width="205.097" height="5.327" x="-171.005" y="1109.817" class="logo_inline_svg__cls-9" rx="2.323" ry="2.323" style="fill:#eaeaea;stroke-width:0;--darkreader-inline-fill:var(--darkreader-text-eaeaea, #dbd8d3)" transform="matrix(.04896 -.2337 .23154 .04942 -423.142 147.124)"/><rect width="205.097" height="5.327" x="296.062" y="1083.277" class="logo_inline_svg__cls-9" rx="2.323" ry="2.323" style="fill:#eaeaea;stroke-width:0;--darkreader-inline-fill:var(--darkreader-text-eaeaea, #dbd8d3)" transform="matrix(.13887 -.19342 .19163 .14017 -423.142 147.124)"/><rect width="205.097" height="5.327" x="711.538" y="869.459" class="logo_inline_svg__cls-9" rx="2.323" ry="2.323" style="fill:#eaeaea;stroke-width:0;--darkreader-inline-fill:var(--darkreader-text-eaeaea, #dbd8d3)" transform="matrix(.20473 -.11983 .11872 .20664 -423.142 147.124)"/><rect width="205.097" height="5.327" x="1005.368" y="503.406" class="logo_inline_svg__cls-9" rx="2.323" ry="2.323" style="fill:#eaeaea;stroke-width:0;--darkreader-inline-fill:var(--darkreader-text-eaeaea, #dbd8d3)" transform="matrix(.23535 -.02513 .0249 .23755 -423.142 147.124)"/><rect width="5.327" height="205.097" x="-294.354" y="882.03" class="logo_inline_svg__cls-9" rx="2.323" ry="2.323" style="fill:#eaeaea;stroke-width:0;--darkreader-inline-fill:var(--darkreader-text-eaeaea, #dbd8d3)" transform="matrix(.02334 -.2377 .2355 .02356 -423.142 147.124)"/><rect width="5.327" height="205.097" x="174.033" y="906.488" class="logo_inline_svg__cls-9" rx="2.323" ry="2.323" style="fill:#eaeaea;stroke-width:0;--darkreader-inline-fill:var(--darkreader-text-eaeaea, #dbd8d3)" transform="matrix(.1173 -.20747 .20555 .11839 -423.142 147.124)"/><rect width="5.327" height="205.097" x="609.735" y="739.283" class="logo_inline_svg__cls-9" rx="2.323" ry="2.323" style="fill:#eaeaea;stroke-width:0;--darkreader-inline-fill:var(--darkreader-text-eaeaea, #dbd8d3)" transform="matrix(.19059 -.14162 .1403 .19237 -423.142 147.124)"/><rect width="5.327" height="205.097" x="942.372" y="406.285" class="logo_inline_svg__cls-9" rx="2.323" ry="2.323" style="fill:#eaeaea;stroke-width:0;--darkreader-inline-fill:var(--darkreader-text-eaeaea, #dbd8d3)" transform="matrix(.2313 -.05056 .0501 .23346 -423.142 147.124)"/><path d="M1052.784 215.488A181.96 181.96 0 0 0 870.822 397.45a182 182 0 0 0 5.503 42.672h352.916a182 182 0 0 0 5.503-42.672 181.96 181.96 0 0 0-181.96-181.962z" class="logo_inline_svg__cls-1" style="fill:none;stroke:#eaeaea;stroke-width:8.63516px;stroke-miterlimit:10;--darkreader-inline-fill:none;--darkreader-inline-stroke:var(--darkreader-text-eaeaea, #dbd8d3)" transform="matrix(.23666 0 0 .23887 -423.142 147.124)"/><path d="M1052.712 237.1a160.407 160.407 0 0 0-160.406 160.41 160.4 160.4 0 0 0 5.935 42.613h308.944a160.4 160.4 0 0 0 5.935-42.613 160.407 160.407 0 0 0-160.408-160.41z" class="logo_inline_svg__cls-1" style="fill:none;stroke:#eaeaea;stroke-width:8.63516px;stroke-miterlimit:10;--darkreader-inline-fill:none;--darkreader-inline-stroke:var(--darkreader-text-eaeaea, #dbd8d3)" transform="matrix(.23666 0 0 .23887 -423.142 147.124)"/><path d="M842.606 362.592h14.525a6.414 6.414 0 0 1 6.406 6.406v19.077c0 1.02-.833 1.854-1.854 1.854h-23.617a1.86 1.86 0 0 1-1.854-1.854v-19.077a6.414 6.414 0 0 1 6.406-6.406zM868.5 281.32h14.525a6.414 6.414 0 0 1 6.406 6.406v19.078c0 1.02-.833 1.853-1.854 1.853H863.96a1.86 1.86 0 0 1-1.854-1.853v-19.078a6.414 6.414 0 0 1 6.406-6.406zm56.82-62.57h14.526a6.414 6.414 0 0 1 6.406 6.407v19.077c0 1.02-.833 1.854-1.854 1.854H920.78a1.86 1.86 0 0 1-1.853-1.854v-19.077a6.414 6.414 0 0 1 6.406-6.406zm77.67-33.8h14.525a6.414 6.414 0 0 1 6.406 6.405v19.077a1.858 1.858 0 0 1-1.854 1.854H998.45a1.86 1.86 0 0 1-1.854-1.854v-19.077a6.414 6.414 0 0 1 6.406-6.406zm84.862-.716h14.525a6.414 6.414 0 0 1 6.406 6.406v19.077c0 1.02-.833 1.853-1.854 1.853h-23.618a1.86 1.86 0 0 1-1.853-1.853V190.64a6.414 6.414 0 0 1 6.406-6.406zm77.681 35.232h14.525a6.414 6.414 0 0 1 6.406 6.406v19.078c0 1.02-.833 1.853-1.854 1.853h-23.617a1.86 1.86 0 0 1-1.854-1.853v-19.078a6.414 6.414 0 0 1 6.406-6.406zm56.809 61.854h14.525a6.414 6.414 0 0 1 6.406 6.406v19.078c0 1.02-.833 1.853-1.854 1.853h-23.617a1.86 1.86 0 0 1-1.854-1.853v-19.078a6.414 6.414 0 0 1 6.406-6.406zm25.894 81.272h14.525a6.414 6.414 0 0 1 6.406 6.406v19.077c0 1.02-.833 1.854-1.854 1.854h-23.618a1.86 1.86 0 0 1-1.853-1.854v-19.077a6.414 6.414 0 0 1 6.406-6.406z" class="logo_inline_svg__cls-8" style="fill:#e84b5e;stroke-width:0;--darkreader-inline-fill:var(--darkreader-text-e84b5e, #e95466)" transform="matrix(.23666 0 0 .23887 -423.142 147.124)"/></g><path d="M-67.504 233.265v65.463h-6.332v-3.949l.642-.48v-.192h.274v-.203l-.934-.4v-.8h.107v-.193l-.273-.27v-4.864h.155v-.265h.219v-.163h-.375v-3.34h.257v-.304h.235v-.333h-.246s.179-.142.179-.774-1.224-.321-1.224-.925v-.603s.206-.113.206-.31v-.13h-.441c0-.04-.012-.147-.106-.147-.117 0-.09-.102-.09-.198s.475-.315.475-1.049c0-.733-.587-.305-.587-.637 0-.333.185-.187.185-.413s-.18-.242-.286-.242-.284.017-.284.242c0 .226.184.08.184.413s-.586-.102-.586.637c0 .74.474.953.474 1.049s.024.198-.088.198c-.095 0-.107.107-.107.147h-.61v.118s-.782-.277-.782-.954v-.631h.212v-.299h-.173v-.587h.358v-.338h.173v-.339s-.57-.107-.57-.699h-.111v-.598s.715-.096.715-.677v-.283h-2.225v-.58h-.302s-.017-.21-.173-.243c-.156-.04-.1-.394-.1-.524s.441-.232.441-.514-.039-.44-.162-.366c-.117.079-.168.23-.168.017s.04-.434-.06-.536c-.096-.096-.113-.23-.292-.14-.173.09-.1.23-.179.31-.078.084-.212-.12-.212.09 0 .208-.017.423.1.598.118.18-.156-.012-.156.22 0 .23.263.445.135.643-.129.197-.18.338-.18.445h-.268v.582h-2.224v.281c0 .581.71.678.71.678v.597h-.107c0 .593-.57.7-.57.7v.338h.168v.34h.363v.586h-.173v.3h.212v.63c0 .683-.782.954-.782.954v-.119h-.61c0-.04-.011-.147-.105-.147-.118 0-.09-.1-.09-.197 0-.096.475-.316.475-1.05 0-.733-.587-.303-.587-.636s.185-.187.185-.412c0-.226-.179-.243-.285-.243s-.286.018-.286.243.185.08.185.412c0 .333-.587-.102-.587.636 0 .74.476.954.476 1.05s.027.197-.09.197c-.096 0-.106.108-.106.147h-.448v.13c0 .198.207.311.207.311v.603c0 .604-1.219.3-1.219.926s.173.772.173.772h-.245v.333h.24v.305h.258v3.34h-1.783v-20.39s.195-.315 0-.512c-.196-.204.156-.48 0-.627-.157-.158-.062-.519-.062-.519h.744v-.536h.229v-.333h-.28s.246-.344.101-.502c-.145-.146-.207-.26-.168-.44.045-.192-.18-.897.274-.897.452 0 .312.006.402.09.084.085.04-.26-.195-.321-.235-.074-.592-.22-.805 0-.218.214-.157.44-.537.44s-1.034-.26-1.034-.43v-2.56s.32-.034.32-.401c0 0-.337-1.433-1.56-1.563a.65.65 0 0 1-.068-.26c.023.007.235.018.235-.31 0 0 .012-.247-.307-.276v-.315h.111a.056.056 0 0 0 .057-.057c0-.034-.023-.056-.057-.056h-.111v-.125c0-.028-.018-.056-.046-.056a.056.056 0 0 0-.055.056v.125h-.112a.056.056 0 0 0-.056.056c0 .034.023.057.056.057h.112v.315c-.313.023-.302.277-.302.277 0 .327.207.315.23.31-.006.135-.034.209-.068.248-1.218.135-1.56 1.574-1.56 1.574 0 .367.32.401.32.401v2.56c0 .176-.66.43-1.034.43-.375 0-.319-.226-.531-.44-.218-.22-.57-.074-.805 0-.235.067-.286.406-.202.321.09-.084-.044-.09.403-.09s.23.705.274.897c.039.186-.012.294-.168.44-.14.158.106.502.106.502h-.28v.333h.224v.536h.75s.089.367-.068.519c-.145.147.201.423 0 .627-.196.197 0 .512 0 .512v20.355c-.436-.017-.883-.22-1.285-.717-1.766-2.155-4.03-1.94-4.03-1.94v-3.724s.061-.214.061-.53v-.903s.24-.084.24-.242c0 0 .235 0 .235-.158v-.175l-.732-.294v-1.54s.163-.085.163-.327l-.258-.423s-.078-.242-.028-.389c.045-.135.084-.204-.012-.3-.1-.101.012-.326.101-.326s.168-.135.168-.299-.307-.198-.307-.514-.067-.446-.24-.536c-.168-.085-.173-.242-.09-.327.079-.09 0-.231-.2-.231-.202 0-.242.09-.203.248.034.164-.028.181-.1.26-.079.073-.263.169-.263-.108v-.823l-.112-.249v-.637s.056-1.016-.257-1.326c0 0-.787-5.376-7.003-7.525v-.215l-.123-.09v-2.404l.067-.073v-.48s.134-.191 0-.4c0 0-.107-.108-.107-.294s.063-.834-.077-.885c-.129-.04.06.61-.096.688-.156.08-.285-.158-.38-.26-.1-.1-.256-.219-.256-.428v-.801l-.107-.164v-.32s-.012-.515-.76-.893c0 0-.201-.034-.201-.316 0 0-.033-.14-.033-.378a.544.544 0 0 0 .396-.524.54.54 0 0 0-.43-.525v-.779h.43v-.225h-.43v-.553h-.202v.553h-.43v.225h.43v.779a.53.53 0 0 0-.43.525c0 .26.168.467.397.524 0 .231-.034.378-.034.378 0 .282-.201.316-.201.316-.744.378-.76.892-.76.892v.32l-.112.164v.802c0 .209-.145.327-.246.428-.095.102-.223.333-.38.26-.156-.08.039-.728-.095-.688-.134.045-.078.699-.078.885s-.107.293-.107.293a.37.37 0 0 0 0 .4v.48l.062.074v2.403l-.118.09v.215c-6.215 2.15-7.008 7.526-7.008 7.526-.302.31-.247 1.325-.247 1.325v.638l-.112.248v.824c0 .276-.19.18-.262.107-.073-.079-.134-.096-.1-.26.033-.163-.007-.248-.202-.248s-.285.141-.2.232c.083.084.078.242-.096.327-.173.09-.24.214-.24.536 0 .321-.303.35-.303.513s.079.3.168.3.202.224.101.326c-.1.096-.06.164-.012.3.04.14-.034.389-.034.389l-.256.422c0 .243.166.328.166.328v1.54l-.737.293v.175c0 .158.235.158.235.158 0 .164.246.243.246.243v.903c0 .316.061.53.061.53v3.723s-2.269-.214-4.03 1.94c-.407.497-.844.7-1.29.718V266.56s.2-.317 0-.514c-.196-.203.156-.479 0-.626-.146-.158-.062-.518-.062-.518h.748v-.537h.225v-.332h-.28s.246-.344.1-.502c-.145-.147-.2-.26-.161-.44.039-.193-.18-.898.273-.898s.314.006.397.09c.084.085.04-.259-.196-.321-.234-.073-.592-.22-.804 0-.213.214-.157.44-.531.44-.375 0-1.034-.26-1.034-.429v-2.56s.313-.035.313-.402c0 0-.33-1.433-1.56-1.574a.5.5 0 0 1-.061-.248c.022.006.229.018.229-.31 0 0 .012-.248-.302-.276v-.316h.112a.056.056 0 0 0 .056-.056c0-.034-.023-.056-.056-.056h-.112v-.125a.056.056 0 0 0-.056-.056c-.033 0-.055.022-.055.056v.125h-.112c-.028 0-.045.022-.045.056s.017.056.045.056h.112v.316c-.313.022-.302.276-.302.276 0 .327.206.316.234.31-.011.141-.039.215-.067.248-1.224.136-1.559 1.574-1.559 1.574 0 .367.313.402.313.402v2.56c0 .175-.654.43-1.029.43s-.318-.227-.536-.441c-.212-.22-.57-.073-.804 0-.235.068-.28.406-.196.322.083-.085-.056-.09.397-.09s.228.705.278.896c.034.187-.017.294-.167.44-.145.159.101.503.101.503h-.28v.332h.23v.537h.743s.095.366-.061.518c-.157.147.195.423 0 .626-.202.197 0 .514 0 .514v20.388h-1.783v-3.34h.256v-.305h.235v-.333h-.246s.179-.14.179-.772-1.224-.322-1.224-.925v-.604s.207-.113.207-.31v-.13h-.441c0-.04-.012-.147-.107-.147-.117 0-.09-.101-.09-.197s.475-.317.475-1.05-.586-.305-.586-.638.184-.185.184-.411-.178-.242-.285-.242-.285.017-.285.242c0 .226.185.078.185.411s-.587-.101-.587.638.475.954.475 1.05.023.197-.09.197c-.094 0-.106.107-.106.147h-.61v.119s-.782-.277-.782-.954v-.631h.213v-.3h-.174v-.586h.359v-.34h.173v-.337s-.57-.108-.57-.7h-.112v-.599s.715-.095.715-.676v-.282h-2.225v-.581h-.273c0-.107-.04-.248-.173-.446-.13-.197.133-.412.133-.643s-.279-.039-.162-.22c.123-.174.107-.395.107-.598s-.135-.006-.213-.09c-.078-.08-.006-.22-.178-.31-.18-.09-.202.045-.297.14-.095.102-.061.322-.061.537 0 .214-.04.061-.162-.018-.118-.079-.168.08-.168.367 0 .288.447.379.447.514 0 .136.045.485-.106.524-.146.034-.168.243-.168.243h-.302v.58h-2.224v.283c0 .581.715.677.715.677v.598h-.112c0 .592-.57.7-.57.7v.338h.174v.338h.357v.588h-.173v.298h.212v.632c0 .683-.783.953-.783.953v-.118h-.609c0-.04-.012-.147-.106-.147-.117 0-.09-.101-.09-.197s.476-.316.476-1.05c0-.733-.587-.304-.587-.637s.184-.187.184-.412c0-.226-.178-.242-.284-.242-.107 0-.286.017-.286.242 0 .226.185.08.185.412 0 .333-.587-.101-.587.638s.475.953.475 1.049.028.197-.09.197c-.095 0-.106.107-.106.147h-.447v.13c0 .197.212.31.212.31v.604c0 .603-1.224.299-1.224.925s.173.773.173.773h-.245v.333h.24v.305h.257v3.34h-.375v.162h.219v.266h.156v4.862l-.274.272v.19h.1v.802l-.927.4v.204h.274v.192l.637.48v8.535h-6.041v-54.112h-.05l-.09-13.122a.112.112 0 0 0-.224 0l-.09 13.122h-.05l-8.216 7.982h-3.856v4.88h-1.93v1.332h-.234v11.468h.202v1.913h-.202v17.9h-8.288v-1.264h.374l.1-.496v-.61h-.317v-1.787l-.236-.333v-1.676l.14-.22v-.733l-.285-.395h-.106v-.599l-.084-.084v-1.896l-.319-.48v-1.297s.106-.361-.346-.637c0 0-.23-.13-.23-.53 0 0 .118-.142 0-.368-.117-.225-.173-.519-.173-1.054 0 0 0-.745-.05-.745s-.05.745-.05.745c0 .535-.056.829-.173 1.054-.118.226 0 .368 0 .368 0 .4-.23.53-.23.53-.452.276-.346.637-.346.637v1.297l-.318.48v1.896l-.085.084v.599h-.106l-.285.395v.733l.14.22v1.676l-.235.333v1.788h-.318v.61l.067.326h-.425l-2.42-3.284v-1.455h-.146v1.09h-3.208v-1.09l.146-.22v-.733l-.286-.395h-.105v-.598l-.085-.084v-1.896l-.319-.48v-1.297s.107-.361-.346-.637c0 0-.229-.131-.229-.531 0 0 .117-.141 0-.367-.117-.225-.173-.519-.173-1.054 0 0 0-.746-.05-.746s-.05.746-.05.746c0 .535-.056.829-.173 1.054-.118.226 0 .367 0 .367 0 .4-.23.53-.23.53-.452.277-.347.638-.347.638v1.297l-.318.48v1.896l-.084.084v.598h-.107l-.284.395v.733l.145.22v1.09h-6.607v-8.638h.085v-.666h-.085v-2.939l-.184-1.004h-.135v-4.175l-.133-.322v-.203h-.201v-1.161l-.324-.83v-1.738l-.19-.863h-.168l-.146.424h-.234v-1.896h.06v-.242h-.06v-.937l-.162-.344h-.208v-.457l-.128-.31v-1.383s-.067-.293-.324-.378c0 0-.018-.197-.129-.304 0 0 .078-.779-.257-1.224v-1.213l-.089-1.918s.012-.09-.062-.09c-.073 0-.061.09-.061.09l-.09 1.918v1.213c-.335.445-.256 1.224-.256 1.224-.106.107-.129.304-.129.304-.251.09-.325.378-.325.378v1.383l-.127.31v.457h-.207l-.162.344v.937h-.062v.242h.062v1.896h-.236l-.144-.424h-.168l-.19.863v1.738l-.324.83v1.161h-.202v.203l-.134.322v4.175h-.134l-.184 1.004v2.939h-.085v.666h.085v8.637h-6.607v-1.089l.14-.22v-.733l-.285-.395h-.107v-.598l-.083-.084v-1.896l-.32-.48v-1.297s.107-.361-.346-.637c0 0-.228-.131-.228-.531 0 0 .117-.141 0-.367-.118-.225-.174-.519-.174-1.054 0 0 0-.746-.05-.746s-.05.746-.05.746c0 .535-.057.829-.174 1.054s0 .367 0 .367c0 .4-.23.53-.23.53-.452.277-.345.638-.345.638v1.297l-.319.48v1.896l-.083.084v.598h-.107l-.286.395v.733l.146.22v1.09h-3.208v-1.09h-.14v1.455l-2.42 3.284h-.425l.068-.327v-.61h-.32v-1.787l-.234-.333v-1.676l.14-.22v-.733l-.285-.395h-.107v-.599l-.084-.084v-1.896l-.318-.48v-1.297s.106-.361-.346-.637c0 0-.23-.13-.23-.53 0 0 .118-.142 0-.368-.117-.225-.174-.519-.174-1.054 0 0 0-.745-.05-.745s-.05.745-.05.745c0 .535-.056.829-.173 1.054s0 .368 0 .368c0 .4-.23.53-.23.53-.452.276-.345.637-.345.637v1.297l-.319.48v1.896l-.084.084v.599h-.106l-.286.395v.733l.14.22v1.676l-.234.333v1.788h-.32v.61l.101.495h.376v1.264h-2.198l-.72-22.658-2.901 12.84-.313 9.818h-1.905l-6.671 29.537c-.244 1.393-.257 2.774-.17 4.142q.035.736.13 1.462c.037.257.066.514.115.769a17.8 17.8 0 0 0 2.653 6.77c.249.377.525.737.806 1.086l9.88 12.336H.874l9.88-12.336c.282-.35.558-.709.806-1.085.281-.429.488-.89.731-1.335.416-.76.78-1.536 1.087-2.338l.039-.109c.282-.751.53-1.51.717-2.29.06-.242.092-.49.143-.735.12-.602.249-1.2.312-1.813.1-.905.144-1.82.116-2.741a16 16 0 0 0-.405-2.99L.614 263.578c-3.583 2.145-7.382 2.961-9.682 2.961-5.343 0-5.751-2.188-5.751-2.188h-.342v31.49h-6.573v-19.057l-12-5.088-2.75 2.522v.558l-2.348-.705v-13.32h-6.662v46.553H-52.8c.325-4.75.403-8.8.403-8.8 0-4.27-.637-9.297-1.19-12.85.123-1.473.195-2.9.195-4.181 0 0-.223-3.03-.994-7.35v-4.667c1.447-6.16 1.984-17.42 1.984-17.42 0-4.897-1.414-15.266-1.414-15.266h-.57v-1.85h-2.348v-.96zm-151.45 31.39-.577 2.549 1.843-.954s.088 0 .044-.225c-.05-.231-.23-1.134-.23-1.134s-.022-.237-.525-.237z" class="logo_inline_svg__cls-4" style="fill:#252525;fill-opacity:1;stroke-width:0;--darkreader-inline-fill:var(--darkreader-text-252525, #d1cdc7)" transform="translate(79.972 -55.34) scale(.33013)"/><path d="M-193.894 259.673h-4.235l-2.428 5.414h-2.268l6.899-14.96 6.658 14.96h-2.305zm0 0-2.07-4.787-2.168 4.787h4.235zm8.18-2.817v5.096q0 2.205 1.726 2.205 1.727 0 1.727-2.205v-5.096h2.032v5.143q.001 1.067-.263 1.842-.254.692-.875 1.25-1.03.902-2.62.902c-1.062 0-1.925-.3-2.612-.903q-.631-.556-.894-1.249-.252-.619-.253-1.842v-5.143Zm13.176 1.511-1.68.903q-.399-.82-.984-.821a.68.68 0 0 0-.479.187.63.63 0 0 0-.198.478q0 .51 1.176 1.011 1.615.703 2.178 1.293.56.594.56 1.596 0 1.283-.941 2.151-.914.82-2.203.821-2.211 0-3.134-2.18l1.736-.811q.361.638.55.812.371.345.885.346 1.03.001 1.03-.949 0-.548-.794-1.02a23 23 0 0 0-.616-.3 54 54 0 0 1-.622-.3q-.885-.437-1.247-.875-.46-.558-.46-1.43 0-1.158.785-1.914.802-.757 1.952-.756 1.69 0 2.512 1.761zm4.783.403v6.963h-2.033v-6.963h-.866v-1.914h.866v-3.254h2.033v3.254h1.58v1.914zm3.258-1.914h2.032v.793q.562-.593.993-.812.441-.229 1.049-.228.803.001 1.68.528l-.931 1.877c-.387-.278-.761-.419-1.13-.419q-1.66 0-1.66 2.536v4.602h-2.033v-8.88zm6.976-3.694q0-.538.387-.93c.26-.263.569-.39.93-.39.363 0 .681.13.941.39q.39.383.39.94 0 .555-.39.949a1.24 1.24 0 0 1-.93.393q-.554 0-.941-.393a1.3 1.3 0 0 1-.387-.959m2.339 3.694v8.88h-2.033v-8.88Zm9.188 0h2.042v8.88h-2.042v-.93q-1.258 1.186-2.7 1.187-1.825 0-3.017-1.33-1.183-1.36-1.182-3.392c0-1.355.393-2.438 1.182-3.328q1.183-1.33 2.964-1.33 1.536-.001 2.753 1.277v-1.03zm-4.823 4.412q0 1.275.677 2.08.698.811 1.751.812 1.129-.001 1.826-.784.696-.81.696-2.061c0-.834-.232-1.518-.696-2.06q-.697-.794-1.807-.794-1.05.001-1.751.802-.696.81-.696 2.005" class="logo_inline_svg__cls-7" style="fill:#fff;stroke-width:0;--darkreader-inline-fill:var(--darkreader-text-ffffff, #e8e6e3)" transform="translate(155.389 -113.333) scale(.64246)"/><path d="M-195.869 261.737a8.5 8.5 0 0 1-2.97-.531l-.784 1.714a10.46 10.46 0 0 0 7.294.081l-.757-1.73c-.873.3-1.809.466-2.783.466" class="logo_inline_svg__cls-7" style="fill:#fff;stroke-width:0;--darkreader-inline-fill:var(--darkreader-text-ffffff, #e8e6e3)" transform="translate(155.389 -113.333) scale(.64246)"/></svg>