<svg xmlns="http://www.w3.org/2000/svg" xml:space="preserve" viewBox="0 0 520 300"><path d="M54.9 49.7c-.3-3.6-2-6.9-9-6.9-5.5 0-9.2 1.4-9.2 7 0 12.1 23.8 4.6 23.8 20.5C60.5 78.9 53.1 82 46 82c-11.3-.1-15.2-8-15.2-13 0-.6.4-1.1 1-1.1h2.6c.6 0 1 .5 1 1 .1 2.6 1.9 8.8 10.7 8.8 5.6 0 9.9-2 9.9-7.6 0-11.2-23.8-3.9-23.8-20.5 0-7.7 5.8-11 13.9-11 10.7 0 13.4 6.5 13.4 10.9 0 .6-.4 1-1 1H56c-.7.1-1-.2-1.1-.8m61-9.8c0 .2-.1.4-.2 1l-11 39.7c-.1.4-.5.7-1 .7h-3.5c-.5 0-.8-.3-1-.7l-9.1-34.2L81 80.6c-.1.4-.5.7-1 .7h-3.6c-.5 0-.8-.2-1-.7L64.3 40.9c-.1-.4-.2-.7-.2-1 0-.4.2-.7.7-.7h3.1c.4 0 .9.2 1.1 1l9.2 34.6 9.3-34.6c.2-.7.5-1 1-1h3.1c.5 0 .9.3 1.1 1l9.3 34.6 9.2-34.6c.1-.5.4-1 1-1h3c.4.1.7.4.7.7m6.6 40.4v-40c0-.5.4-1 1-1h2.5c.6 0 1 .5 1 1v40c0 .6-.4 1-1 1h-2.5c-.5 0-1-.4-1-1m36.7-30.6c-.3-3.6-2-6.9-9-6.9-5.5 0-9.2 1.4-9.2 7 0 12.1 23.8 4.6 23.8 20.5 0 8.6-7.4 11.7-14.5 11.7-11.3 0-15.2-7.9-15.2-12.8 0-.6.4-1.1 1-1.1h2.6c.6 0 1 .5 1 1 .1 2.6 1.9 8.8 10.7 8.8 5.6 0 9.9-2 9.9-7.6 0-11.2-23.8-3.9-23.8-20.5 0-7.7 5.8-11 13.9-11 10.7 0 13.4 6.5 13.4 10.9 0 .6-.4 1-1 1h-2.5c-.6-.1-1.1-.4-1.1-1m35 0c-.3-3.6-2-6.9-9-6.9-5.5 0-9.2 1.4-9.2 7 0 12.1 23.8 4.6 23.8 20.5 0 8.6-7.4 11.7-14.5 11.7-11.3 0-15.2-7.9-15.2-12.8 0-.6.4-1.1 1-1.1h2.6c.6 0 1 .5 1 1 .1 2.6 1.9 8.8 10.7 8.8 5.6 0 9.9-2 9.9-7.6 0-11.2-23.8-3.9-23.8-20.5 0-7.7 5.8-11 13.9-11 10.7 0 13.4 6.5 13.4 10.9 0 .6-.4 1-1 1h-2.5c-.6-.1-.9-.4-1.1-1m-131.4 78c-.5 7.1-6.3 14.2-15.9 14.2s-16.6-7.1-16.6-17.6v-8c0-10.5 7-17.6 16.6-17.6s15.3 6.8 15.8 14.1c.1.9-.4 1.5-1.3 1.5h-6.1c-.7 0-1.3-.4-1.5-1.6-.5-2.9-2.5-5.8-6.8-5.8s-7.9 3.4-7.9 9.5v7.9c0 6.2 3.5 9.4 7.9 9.4s6.5-2.7 6.8-5.6c.1-.9.4-1.9 1.6-1.9h6c.9.1 1.4.9 1.4 1.5m30.3 13.6H70.3c-1 0-1.9-.8-1.9-1.9v-38.3c0-1 .8-1.9 1.9-1.9h5c1 0 1.9.8 1.9 1.9v32h16c1 0 1.9.8 1.9 1.9v4.4c-.1 1.1-1 1.9-2 1.9M114 98.7c9.6 0 16.7 7 16.7 17.5v8.1c0 10.5-7.1 17.6-16.7 17.6s-16.6-7.1-16.6-17.6v-8.1c0-10.5 7-17.5 16.6-17.5m0 35c4.4 0 8-3.2 8-9.4v-8c0-6.2-3.7-9.5-8-9.5s-7.9 3.3-7.9 9.5v8c0 6.2 3.5 9.4 7.9 9.4m47.1-34.4h5c1 0 1.9.8 1.9 1.9V125c0 10.5-6.5 17-16 17s-15.8-6.5-15.8-17v-23.8c0-1 .8-1.9 1.9-1.9h5c1 0 1.9.8 1.9 1.9V125c0 6.2 2.9 8.8 7.1 8.8s7.3-2.6 7.3-8.8v-23.8c-.2-1.1.7-1.9 1.7-1.9m13.5 40.1v-38.3c0-1 .8-1.9 1.9-1.9h13.1c9.7 0 16.9 7 16.9 17.5v6.9c0 10.5-7.3 17.6-16.9 17.6h-13.2c-1 .1-1.8-.7-1.8-1.8m8.6-6.3h6.2c4.4 0 8-3.2 8-9.4v-6.8c0-6.1-3.7-9.4-8-9.4h-6.2zM64.4 161.2v38.3c0 1-.8 1.9-1.9 1.9h-4.8c-.7 0-1.6.1-2.9-2.2l-14.9-26.5v26.8c0 1-.8 1.9-1.9 1.9h-4.7c-1 0-1.9-.8-1.9-1.9v-38.3c0-1 .8-1.9 1.9-1.9h6.5c1 0 1.9.9 2.2 1.4l13.9 25v-24.6c0-1 .8-1.9 1.9-1.9h4.7c1 .1 1.9 1 1.9 2m42 38.8c0 .8-.6 1.3-1.4 1.3h-6c-1 0-1.4-.5-1.6-1L95 193H79.5l-2.4 7.2c-.2.8-1 1.1-1.4 1.1H70c-.8 0-1.4-.5-1.4-1.3 0-.4.2-.8.3-1.1l13.5-38.3c.2-.5.8-1.3 1.8-1.3h6.7c1 0 1.6.8 1.8 1.3l13.2 37.7c.1.3.5 1.3.5 1.7m-13.8-14.8-5.1-15.8-5.3 15.8zm10.5-19.6v-4.4c0-1 .8-1.9 1.9-1.9h28.6c1 0 1.9.8 1.9 1.9v4.4c0 1-.8 1.9-1.9 1.9h-10v32c0 1-.8 1.9-1.9 1.9h-5c-1 0-1.9-.8-1.9-1.9v-32h-10c-.8 0-1.7-.9-1.7-1.9m36.6 33.9v-38.3c0-1 .8-1.9 1.9-1.9h5c1 0 1.9.8 1.9 1.9v38.3c0 1-.8 1.9-1.9 1.9h-5c-1.1-.1-1.9-.9-1.9-1.9m49.2-38.8c0 .4-.4 1.5-.6 2.1l-13 37.3c-.2.7-.7 1.3-1.7 1.3H168c-1 0-1.5-.5-1.7-1.3l-13.3-38c-.1-.2-.3-.8-.3-1.3 0-.7.5-1.4 1.3-1.4h5.8c1.4 0 1.9 1 2.3 2.2l9 27.7 9-27.7c.4-1.1.7-2.2 2-2.2h5.5c.6-.1 1.3.6 1.3 1.3m28.9 6.8h-16v8.5h12.4c1 0 1.9.8 1.9 1.9v4.4c0 1-.8 1.9-1.9 1.9h-12.4v9.1h16c1 0 1.9.8 1.9 1.8v4.5c0 1-.8 1.9-1.9 1.9H195c-1 0-1.9-.8-1.9-1.9v-38.3c0-1 .8-1.9 1.9-1.9h22.8c1 0 1.9.8 1.9 1.9v4.4c-.1.9-.9 1.8-1.9 1.8m-186.4 92v-38.3c0-1 .8-1.9 1.9-1.9h13.1c9.7 0 16.9 7 16.9 17.5v6.9c0 10.5-7.3 17.6-16.9 17.6H33.3c-1 0-1.9-.8-1.9-1.8m8.7-6.4h6.3c4.4 0 8-3.2 8-9.4V237c0-6.1-3.7-9.4-8-9.4h-6.2zM103 260c0 .8-.6 1.3-1.4 1.3h-6c-1 0-1.4-.5-1.6-1l-2.4-7.3H76l-2.4 7.2c-.2.8-1 1.1-1.4 1.1h-5.7c-.8 0-1.4-.5-1.4-1.3 0-.4.2-.8.3-1.1L79 220.7c.2-.5.8-1.3 1.8-1.3h6.7c1 0 1.6.8 1.8 1.3l13.2 37.7c0 .2.5 1.2.5 1.6m-13.9-14.7L84 229.5l-5.3 15.8zm46.1-24.6c0 .7-.6 1.6-1 2.3l-12.8 22.9v13.6c0 1-.8 1.9-1.9 1.9h-5c-1 0-1.9-.8-1.9-1.9v-13.7l-12.5-23c-.2-.4-.9-1.4-.9-2 0-.8.6-1.4 1.4-1.4h6.4c.5 0 1 .3 1.4 1.1l8.8 17.2 9.1-17.2c.2-.4.6-1 1.6-1h5.9c1-.2 1.4.4 1.4 1.2" style="fill:#231e46"/><path d="M414.6 112.1c0-33.9-35.7-30.2-39.4-40.4-6.1-16.7-24.7-33-46.7-33s-34.8 17.1-40 29.9c-5.5 13.6-42.9 13-45.7 36.4-3.4 28.6 25.8 39.8 52 39.8h79.9c22.1 0 39.9-10.7 39.9-32.7" style="fill:#f6b0a3"/><path d="M479.1 259.1c-24.6-14.4-21.6-17.5-44.1-21.8-22.6-4.4-25.7-19.2-34.9-57.3s-50.3-72.8-63.5-74.8c-13.1-2.1-15.6 30.8-31 44.1s-33.9 57.5-44.1 72.9c-6.6 10-35.3 25.6-57.7 39.2h279.5c-1.4-.8-2.8-1.5-4.2-2.3" style="opacity:.8;fill:#92a9af"/><path d="M341.8 168.7c6.2-10.5 2.2-18.9-5.2-29.3-7.4-10.5 0-34.3 0-34.3-13.1-2.1-15.6 30.8-31 44.1s-33.9 57.5-44.1 72.9c-6.6 10-35.3 25.6-57.7 39.2h115.5c-6.2-17.7 16.6-82.6 22.5-92.6" style="opacity:.8;fill:#4b4596"/></svg>